<svg xmlns="http://www.w3.org/2000/svg" version="1.1" viewBox="-5.0 -10.0 110.0 135.0">
 <path d="m50 6.25c1.1523 0 2.082 0.93359 2.082 2.082v6.25h14.586c2.7617 0 5.4102 1.0977 7.3633 3.0508 1.9531 1.9531 3.0508 4.6055 3.0508 7.3672v16.668c0 2.7617-1.0977 5.4102-3.0508 7.3633s-4.6016 3.0508-7.3633 3.0508h-2.0859v5.043l13.535 7.7344c1 0.57031 1.3477 1.8438 0.77344 2.8398-0.57031 1-1.8438 1.3477-2.8398 0.77734l-11.469-6.5547v25.578c0 1.1523-0.92969 2.082-2.082 2.082s-2.082-0.92969-2.082-2.082v-10.418h-20.836v10.418c0 1.1523-0.92969 2.082-2.082 2.082s-2.082-0.92969-2.082-2.082v-25.578l-11.469 6.5547c-0.99609 0.57031-2.2695 0.22266-2.8398-0.77734-0.57422-0.99609-0.22656-2.2695 0.77344-2.8398l13.535-7.7344v-5.043h-2.0859c-2.7617 0-5.4102-1.0977-7.3633-3.0508s-3.0508-4.6016-3.0508-7.3633v-16.668c0-2.7617 1.0977-5.4141 3.0508-7.3672 1.9531-1.9531 4.6016-3.0508 7.3633-3.0508h14.586v-6.25c0-1.1484 0.92969-2.082 2.082-2.082zm-10.418 66.668h20.836v-14.547-0.078125-6.2109h-20.836zm27.086-25h-33.336c-1.6562 0-3.2461-0.66016-4.418-1.832-1.1719-1.1719-1.832-2.7617-1.832-4.418v-16.668c0-1.6562 0.66016-3.2461 1.832-4.418 1.1719-1.1719 2.7617-1.832 4.418-1.832h33.336c1.6562 0 3.2461 0.66016 4.418 1.832 1.1719 1.1719 1.832 2.7617 1.832 4.418v16.668c0 1.6562-0.66016 3.2461-1.832 4.418-1.1719 1.1719-2.7617 1.832-4.418 1.832z" fill-rule="evenodd"/>
 <path d="m39.582 29.168c1.1523 0 2.0859 0.92969 2.0859 2.082v2.082c0 1.1523-0.93359 2.0859-2.0859 2.0859-1.1484 0-2.082-0.93359-2.082-2.0859v-2.082c0-1.1523 0.93359-2.082 2.082-2.082z" fill-rule="evenodd"/>
 <path d="m60.418 29.168c1.1484 0 2.082 0.92969 2.082 2.082v2.082c0 1.1523-0.93359 2.0859-2.082 2.0859-1.1523 0-2.0859-0.93359-2.0859-2.0859v-2.082c0-1.1523 0.93359-2.082 2.0859-2.082z" fill-rule="evenodd"/>
<text x="0.0" y="117.5" font-size="5.0" font-weight="bold" font-family="Arbeit Regular, Helvetica, Arial-Unicode, Arial, Sans-serif" fill="#000000">Created by Henning Gross</text><text x="0.0" y="122.5" font-size="5.0" font-weight="bold" font-family="Arbeit Regular, Helvetica, Arial-Unicode, Arial, Sans-serif" fill="#000000">from Noun Project</text></svg>